<?xml version="1.0" encoding="UTF-8" standalone="no"?>
<!-- Created with Inkscape (http://www.inkscape.org/) -->

<svg
   xmlns:dc="http://purl.org/dc/elements/1.1/"
   xmlns:cc="http://creativecommons.org/ns#"
   xmlns:rdf="http://www.w3.org/1999/02/22-rdf-syntax-ns#"
   xmlns:svg="http://www.w3.org/2000/svg"
   xmlns="http://www.w3.org/2000/svg"
   xmlns:sodipodi="http://sodipodi.sourceforge.net/DTD/sodipodi-0.dtd"
   xmlns:inkscape="http://www.inkscape.org/namespaces/inkscape"
   width="200"
   height="100"
   viewBox="0 0 200 100"
   id="svg2"
   version="1.1"
   inkscape:version="0.91 r13725"
   sodipodi:docname="rotu.svg">
  <defs
     id="defs4" />
  <sodipodi:namedview
     id="base"
     pagecolor="#ffffff"
     bordercolor="#666666"
     borderopacity="1.0"
     inkscape:pageopacity="0.0"
     inkscape:pageshadow="2"
     inkscape:zoom="6.35"
     inkscape:cx="99.84252"
     inkscape:cy="36.267854"
     inkscape:document-units="px"
     inkscape:current-layer="flowRoot3336"
     showgrid="false"
     units="px"
     showguides="false"
     inkscape:window-width="1920"
     inkscape:window-height="1056"
     inkscape:window-x="0"
     inkscape:window-y="24"
     inkscape:window-maximized="1" />
  <metadata
     id="metadata7">
    <rdf:RDF>
      <cc:Work
         rdf:about="">
        <dc:format>image/svg+xml</dc:format>
        <dc:type
           rdf:resource="http://purl.org/dc/dcmitype/StillImage" />
        <dc:title></dc:title>
      </cc:Work>
    </rdf:RDF>
  </metadata>
  <g
     inkscape:label="Layer 1"
     inkscape:groupmode="layer"
     id="layer1"
     transform="translate(0,-952.36216)">
    <g
       transform="matrix(1.0681448,0,0,1.0681448,-0.49002258,-67.020394)"
       style="font-style:normal;font-variant:normal;font-weight:300;font-stretch:normal;font-size:99.47153473px;line-height:125%;font-family:Ubuntu;-inkscape-font-specification:'Ubuntu, Light';text-align:start;letter-spacing:0px;word-spacing:0px;writing-mode:lr-tb;text-anchor:start;fill:#000000;fill-opacity:1;stroke:none;stroke-width:1px;stroke-linecap:butt;stroke-linejoin:miter;stroke-opacity:1"
       id="flowRoot3336">
      <path
         d="m 24.637714,987.86488 q 3.183089,0 5.968292,0.49736 2.884675,0.49736 3.978861,0.99471 l -1.29313,5.57041 q -0.795772,-0.39789 -3.28256,-0.79577 -2.387317,-0.49736 -6.366178,-0.49736 -4.177805,0 -6.764065,0.59683 -2.486788,0.59683 -3.28256,0.99471 l 0,45.06063 -6.4656501,0 0,-49.03949 q 2.4867883,-1.09419 6.8635361,-2.18837 4.376747,-1.19366 10.643454,-1.19366 z"
         style="fill:#dc143c;fill-opacity:1"
         id="path3392" />
      <path
         d="m 88.105215,1014.6227 q 0,6.0678 -1.790488,11.0414 -1.691016,4.9735 -4.874105,8.455 -3.083618,3.4815 -7.360894,5.471 -4.277276,1.8899 -9.449796,1.8899 -5.172519,0 -9.449795,-1.8899 -4.277276,-1.9895 -7.460365,-5.471 -3.083618,-3.4815 -4.874106,-8.455 -1.691016,-4.9736 -1.691016,-11.0414 0,-6.0677 1.691016,-11.0413 1.790488,-4.97359 4.874106,-8.4551 3.183089,-3.58097 7.460365,-5.47093 4.277276,-1.98943 9.449795,-1.98943 5.17252,0 9.449796,1.98943 4.277276,1.88996 7.360894,5.47093 3.183089,3.48151 4.874105,8.4551 1.790488,4.9736 1.790488,11.0413 z m -6.863536,0 q 0,-9.6487 -4.476219,-15.31859 -4.476219,-5.76935 -12.135528,-5.76935 -7.659308,0 -12.135527,5.76935 -4.476219,5.66989 -4.476219,15.31859 0,9.6488 4.476219,15.3186 4.476219,5.6699 12.135527,5.6699 7.659309,0 12.135528,-5.6699 4.476219,-5.6698 4.476219,-15.3186 z"
         style="fill:#dc143c;fill-opacity:1"
         id="path3394" />
      <path
         d="m 108.20157,988.8596 20.49114,0 0,5.47093 -20.49114,0 0,27.35467 q 0,4.3767 0.6963,7.162 0.79577,2.6857 2.18837,4.1778 1.39261,1.492 3.38204,1.9894 1.98943,0.4973 4.37674,0.4973 4.07834,0 6.56513,-0.8952 2.48678,-0.9947 3.87939,-1.7905 l 1.59154,5.3715 q -1.3926,0.8952 -4.87411,2.0889 -3.4815,1.0942 -7.55983,1.0942 -4.77464,0 -8.0572,-1.1937 -3.18309,-1.2931 -5.17252,-3.7799 -1.88996,-2.5863 -2.68573,-6.3662 -0.79577,-3.7799 -0.79577,-8.9524 l 0,-47.34848 6.46565,-1.19366 0,16.31334 z"
         style="fill:#dc143c;fill-opacity:1"
         id="path3396" />
      <path
         d="m 180.09152,1038.4959 q -2.88468,0.7958 -7.75878,1.7905 -4.87411,0.9947 -11.93658,0.9947 -5.76935,0 -9.64874,-1.691 -3.87939,-1.691 -6.26671,-4.7747 -2.38732,-3.0836 -3.4815,-7.4603 -0.99472,-4.3768 -0.99472,-9.6488 l 0,-28.8467 6.46565,0 0,26.7578 q 0,5.471 0.79577,9.2509 0.79578,3.7799 2.58626,6.1672 1.79049,2.2879 4.57569,3.3821 2.88468,0.9947 6.96301,0.9947 4.57569,0 7.95772,-0.4974 3.38204,-0.4973 4.27728,-0.8952 l 0,-45.1601 6.46565,0 0,49.6363 z"
         style="fill:#dc143c;fill-opacity:1"
         id="path3398" />
    </g>
  </g>
</svg>
